<svg xmlns="http://www.w3.org/2000/svg" xmlns:xlink="http://www.w3.org/1999/xlink" width="236" height="200" version="1.1" viewBox="0 0 236 200"><title>cross-platform</title><desc>Created with Sketch.</desc><g id="Page-4" fill="none" fill-rule="evenodd" stroke="none" stroke-width="1"><g id="package" transform="translate(0.000000, -18.000000)"><g id="Main" stroke-linecap="round" stroke-linejoin="round" stroke-width="2" transform="translate(43.000000, 53.000000)"><path id="main" fill="#B9E1EA" fill-opacity=".76" stroke="#3B8594" d="M6.9388939e-18,106.390355 C6.9388939e-18,108.045842 1.2891432,109.731638 2.89805954,110.160666 L72.5,128.720496 C74.1,129.220496 75.9,129.220496 77.5,128.720496 L147.113175,108.610503 C148.707524,108.149924 150,106.439705 150,104.770351 L150,25.4526183 C150,22.6861825 147.83628,19.8400963 145.179975,19.099271 L77.8941336,0.333705183 C76.2957477,-0.112073804 73.6982346,-0.110395518 72.1058664,0.333705156 L4.82002451,19.0992703 C2.15799848,19.8416913 6.9388939e-18,22.6866634 6.9388939e-18,25.448246 L6.9388939e-18,106.390355 Z"/><path id="Line" fill="#FFF" stroke="#4EA3B3" d="M75,129.5 L75,44"/><path id="Line" fill="#FFF" stroke="#4EA3B3" d="M113,61.0046291 L113,34"/><path id="Line" fill="#FFF" stroke="#4EA3B3" d="M74,44 L2,24"/><path id="Line" fill="#FFF" stroke="#4EA3B3" d="M114,33 L39,11"/><path id="Line" fill="#FFF" stroke="#4EA3B3" d="M75,44 L149,23"/><polygon id="Rectangle-6" fill="#FFF" stroke="#4EA3B3" points="53 54.446 53 70.446 21 80 21 64" transform="translate(37.000000, 67.223145) scale(-1, 1) translate(-37.000000, -67.223145)"/></g></g></g></svg>